<mxfile host="app.diagrams.net" modified="2023-03-09T02:56:48.844Z" agent="5.0 (Macintosh; Intel Mac OS X 10_15_7) AppleWebKit/537.36 (KHTML, like Gecko) Chrome/110.0.0.0 Safari/537.36" etag="9xMHyKfpMkQ8U95Qudra" version="20.8.23" type="github">
  <diagram name="第 1 页" id="4kIgwZHt5vIOWwayWws0">
    <mxGraphModel dx="2074" dy="1131" grid="1" gridSize="10" guides="1" tooltips="1" connect="1" arrows="1" fold="1" page="1" pageScale="1" pageWidth="827" pageHeight="1169" math="0" shadow="0">
      <root>
        <mxCell id="0" />
        <mxCell id="1" parent="0" />
        <mxCell id="3ORwyw-SFtlAZMc1a0_2-27" style="edgeStyle=orthogonalEdgeStyle;rounded=0;orthogonalLoop=1;jettySize=auto;html=1;exitX=1;exitY=0.5;exitDx=0;exitDy=0;" edge="1" parent="1" source="3ORwyw-SFtlAZMc1a0_2-14">
          <mxGeometry relative="1" as="geometry">
            <mxPoint x="330" y="190" as="targetPoint" />
          </mxGeometry>
        </mxCell>
        <mxCell id="3ORwyw-SFtlAZMc1a0_2-14" value="&lt;font style=&quot;font-size: 14px;&quot;&gt;容器发布&lt;/font&gt;" style="rounded=1;whiteSpace=wrap;html=1;fillColor=#dae8fc;strokeColor=#6c8ebf;" vertex="1" parent="1">
          <mxGeometry x="100" y="170" width="120" height="40" as="geometry" />
        </mxCell>
        <mxCell id="3ORwyw-SFtlAZMc1a0_2-28" style="edgeStyle=orthogonalEdgeStyle;rounded=0;orthogonalLoop=1;jettySize=auto;html=1;exitX=1;exitY=0.5;exitDx=0;exitDy=0;entryX=0;entryY=0.5;entryDx=0;entryDy=0;" edge="1" parent="1" source="3ORwyw-SFtlAZMc1a0_2-15" target="3ORwyw-SFtlAZMc1a0_2-16">
          <mxGeometry relative="1" as="geometry" />
        </mxCell>
        <mxCell id="3ORwyw-SFtlAZMc1a0_2-15" value="启动DIND容器" style="rounded=1;whiteSpace=wrap;html=1;fillColor=#fff2cc;strokeColor=#d6b656;" vertex="1" parent="1">
          <mxGeometry x="330" y="170" width="120" height="40" as="geometry" />
        </mxCell>
        <mxCell id="3ORwyw-SFtlAZMc1a0_2-30" style="edgeStyle=orthogonalEdgeStyle;rounded=0;orthogonalLoop=1;jettySize=auto;html=1;exitX=1;exitY=0.5;exitDx=0;exitDy=0;entryX=0;entryY=0.5;entryDx=0;entryDy=0;" edge="1" parent="1" source="3ORwyw-SFtlAZMc1a0_2-16" target="3ORwyw-SFtlAZMc1a0_2-17">
          <mxGeometry relative="1" as="geometry" />
        </mxCell>
        <mxCell id="3ORwyw-SFtlAZMc1a0_2-16" value="获取发布参数" style="rounded=1;whiteSpace=wrap;html=1;fillColor=#fff2cc;strokeColor=#d6b656;" vertex="1" parent="1">
          <mxGeometry x="490" y="170" width="120" height="40" as="geometry" />
        </mxCell>
        <mxCell id="3ORwyw-SFtlAZMc1a0_2-31" style="edgeStyle=orthogonalEdgeStyle;rounded=0;orthogonalLoop=1;jettySize=auto;html=1;exitX=1;exitY=0.5;exitDx=0;exitDy=0;" edge="1" parent="1" source="3ORwyw-SFtlAZMc1a0_2-17" target="3ORwyw-SFtlAZMc1a0_2-19">
          <mxGeometry relative="1" as="geometry" />
        </mxCell>
        <mxCell id="3ORwyw-SFtlAZMc1a0_2-17" value="拉取git代码" style="rounded=1;whiteSpace=wrap;html=1;fillColor=#fff2cc;strokeColor=#d6b656;" vertex="1" parent="1">
          <mxGeometry x="660" y="170" width="120" height="40" as="geometry" />
        </mxCell>
        <mxCell id="3ORwyw-SFtlAZMc1a0_2-32" style="edgeStyle=orthogonalEdgeStyle;rounded=0;orthogonalLoop=1;jettySize=auto;html=1;exitX=0.5;exitY=1;exitDx=0;exitDy=0;" edge="1" parent="1" source="3ORwyw-SFtlAZMc1a0_2-19" target="3ORwyw-SFtlAZMc1a0_2-20">
          <mxGeometry relative="1" as="geometry" />
        </mxCell>
        <mxCell id="3ORwyw-SFtlAZMc1a0_2-19" value="应用编译打包" style="rounded=1;whiteSpace=wrap;html=1;fillColor=#fff2cc;strokeColor=#d6b656;" vertex="1" parent="1">
          <mxGeometry x="827" y="170" width="120" height="40" as="geometry" />
        </mxCell>
        <mxCell id="3ORwyw-SFtlAZMc1a0_2-33" style="edgeStyle=orthogonalEdgeStyle;rounded=0;orthogonalLoop=1;jettySize=auto;html=1;exitX=0;exitY=0.5;exitDx=0;exitDy=0;entryX=1;entryY=0.5;entryDx=0;entryDy=0;" edge="1" parent="1" source="3ORwyw-SFtlAZMc1a0_2-20" target="3ORwyw-SFtlAZMc1a0_2-21">
          <mxGeometry relative="1" as="geometry" />
        </mxCell>
        <mxCell id="3ORwyw-SFtlAZMc1a0_2-20" value="制作Docker镜像" style="rounded=1;whiteSpace=wrap;html=1;fillColor=#fff2cc;strokeColor=#d6b656;" vertex="1" parent="1">
          <mxGeometry x="827" y="270" width="120" height="40" as="geometry" />
        </mxCell>
        <mxCell id="3ORwyw-SFtlAZMc1a0_2-34" style="edgeStyle=orthogonalEdgeStyle;rounded=0;orthogonalLoop=1;jettySize=auto;html=1;exitX=0;exitY=0.5;exitDx=0;exitDy=0;entryX=1;entryY=0.5;entryDx=0;entryDy=0;" edge="1" parent="1" source="3ORwyw-SFtlAZMc1a0_2-21" target="3ORwyw-SFtlAZMc1a0_2-22">
          <mxGeometry relative="1" as="geometry" />
        </mxCell>
        <mxCell id="3ORwyw-SFtlAZMc1a0_2-21" value="推送到仓库" style="rounded=1;whiteSpace=wrap;html=1;fillColor=#fff2cc;strokeColor=#d6b656;" vertex="1" parent="1">
          <mxGeometry x="660" y="270" width="120" height="40" as="geometry" />
        </mxCell>
        <mxCell id="3ORwyw-SFtlAZMc1a0_2-53" style="edgeStyle=orthogonalEdgeStyle;rounded=0;orthogonalLoop=1;jettySize=auto;html=1;exitX=0.5;exitY=1;exitDx=0;exitDy=0;startArrow=none;startFill=0;endArrow=classic;endFill=1;" edge="1" parent="1" source="3ORwyw-SFtlAZMc1a0_2-22" target="3ORwyw-SFtlAZMc1a0_2-50">
          <mxGeometry relative="1" as="geometry" />
        </mxCell>
        <mxCell id="3ORwyw-SFtlAZMc1a0_2-22" value="回调发布系统" style="rounded=1;whiteSpace=wrap;html=1;fillColor=#fff2cc;strokeColor=#d6b656;" vertex="1" parent="1">
          <mxGeometry x="490" y="270" width="120" height="40" as="geometry" />
        </mxCell>
        <object placeholders="1" c4Name="Kubernetes" c4Type="SystemScopeBoundary" c4Application="Kubernetes Job" label="&lt;font style=&quot;font-size: 16px&quot;&gt;&lt;b&gt;&lt;div style=&quot;text-align: left&quot;&gt;%c4Name%&lt;/div&gt;&lt;/b&gt;&lt;/font&gt;&lt;div style=&quot;text-align: left&quot;&gt;[%c4Application%]&lt;/div&gt;" id="3ORwyw-SFtlAZMc1a0_2-25">
          <mxCell style="rounded=1;fontSize=11;whiteSpace=wrap;html=1;dashed=1;arcSize=20;fillColor=none;strokeColor=#666666;fontColor=#333333;labelBackgroundColor=none;align=left;verticalAlign=bottom;labelBorderColor=none;spacingTop=0;spacing=10;dashPattern=8 4;metaEdit=1;rotatable=0;perimeter=rectanglePerimeter;noLabel=0;labelPadding=0;allowArrows=0;connectable=0;expand=0;recursiveResize=0;editable=1;pointerEvents=0;absoluteArcSize=1;points=[[0.25,0,0],[0.5,0,0],[0.75,0,0],[1,0.25,0],[1,0.5,0],[1,0.75,0],[0.75,1,0],[0.5,1,0],[0.25,1,0],[0,0.75,0],[0,0.5,0],[0,0.25,0]];" vertex="1" parent="1">
            <mxGeometry x="320" y="150" width="650" height="200" as="geometry" />
          </mxCell>
        </object>
        <mxCell id="3ORwyw-SFtlAZMc1a0_2-54" style="edgeStyle=orthogonalEdgeStyle;rounded=0;orthogonalLoop=1;jettySize=auto;html=1;startArrow=none;startFill=0;endArrow=classic;endFill=1;entryX=0;entryY=0.5;entryDx=0;entryDy=0;" edge="1" parent="1" source="3ORwyw-SFtlAZMc1a0_2-50" target="3ORwyw-SFtlAZMc1a0_2-51">
          <mxGeometry relative="1" as="geometry">
            <mxPoint x="860" y="470" as="targetPoint" />
          </mxGeometry>
        </mxCell>
        <mxCell id="3ORwyw-SFtlAZMc1a0_2-50" value="&lt;font style=&quot;font-size: 14px;&quot;&gt;部署到K8S&lt;/font&gt;" style="rounded=1;whiteSpace=wrap;html=1;fillColor=#ffe6cc;strokeColor=#d79b00;" vertex="1" parent="1">
          <mxGeometry x="490" y="420" width="120" height="40" as="geometry" />
        </mxCell>
        <mxCell id="3ORwyw-SFtlAZMc1a0_2-55" style="edgeStyle=orthogonalEdgeStyle;rounded=0;orthogonalLoop=1;jettySize=auto;html=1;startArrow=none;startFill=0;endArrow=classic;endFill=1;" edge="1" parent="1" source="3ORwyw-SFtlAZMc1a0_2-51" target="3ORwyw-SFtlAZMc1a0_2-52">
          <mxGeometry relative="1" as="geometry" />
        </mxCell>
        <mxCell id="3ORwyw-SFtlAZMc1a0_2-51" value="&lt;font style=&quot;font-size: 14px;&quot;&gt;新老Deployment&lt;br&gt;流量控制&lt;/font&gt;" style="rounded=1;whiteSpace=wrap;html=1;fillColor=#ffe6cc;strokeColor=#d79b00;" vertex="1" parent="1">
          <mxGeometry x="680" y="420" width="120" height="40" as="geometry" />
        </mxCell>
        <mxCell id="3ORwyw-SFtlAZMc1a0_2-62" style="edgeStyle=orthogonalEdgeStyle;rounded=0;orthogonalLoop=1;jettySize=auto;html=1;exitX=1;exitY=0.5;exitDx=0;exitDy=0;entryX=0;entryY=0.5;entryDx=0;entryDy=0;entryPerimeter=0;startArrow=none;startFill=0;endArrow=classic;endFill=1;" edge="1" parent="1" source="3ORwyw-SFtlAZMc1a0_2-52" target="3ORwyw-SFtlAZMc1a0_2-57">
          <mxGeometry relative="1" as="geometry" />
        </mxCell>
        <mxCell id="3ORwyw-SFtlAZMc1a0_2-52" value="&lt;font style=&quot;font-size: 14px;&quot;&gt;老Deployment下线&lt;/font&gt;" style="rounded=1;whiteSpace=wrap;html=1;fillColor=#ffe6cc;strokeColor=#d79b00;" vertex="1" parent="1">
          <mxGeometry x="850" y="420" width="120" height="40" as="geometry" />
        </mxCell>
        <mxCell id="3ORwyw-SFtlAZMc1a0_2-57" value="&lt;font style=&quot;font-size: 14px;&quot;&gt;结束&lt;/font&gt;" style="strokeWidth=2;html=1;shape=mxgraph.flowchart.terminator;whiteSpace=wrap;fillColor=#f8cecc;strokeColor=#b85450;" vertex="1" parent="1">
          <mxGeometry x="1040" y="415" width="110" height="50" as="geometry" />
        </mxCell>
        <mxCell id="3ORwyw-SFtlAZMc1a0_2-64" style="edgeStyle=orthogonalEdgeStyle;rounded=0;orthogonalLoop=1;jettySize=auto;html=1;exitX=0.5;exitY=1;exitDx=0;exitDy=0;exitPerimeter=0;entryX=0.5;entryY=0;entryDx=0;entryDy=0;startArrow=none;startFill=0;endArrow=classic;endFill=1;" edge="1" parent="1" source="3ORwyw-SFtlAZMc1a0_2-63" target="3ORwyw-SFtlAZMc1a0_2-14">
          <mxGeometry relative="1" as="geometry" />
        </mxCell>
        <mxCell id="3ORwyw-SFtlAZMc1a0_2-63" value="&lt;font style=&quot;font-size: 14px;&quot;&gt;开始&lt;/font&gt;" style="strokeWidth=2;html=1;shape=mxgraph.flowchart.terminator;whiteSpace=wrap;fillColor=#d5e8d4;strokeColor=#82b366;" vertex="1" parent="1">
          <mxGeometry x="105" y="50" width="110" height="50" as="geometry" />
        </mxCell>
      </root>
    </mxGraphModel>
  </diagram>
</mxfile>
